<?xml version="1.0" standalone="no"?>
<!DOCTYPE svg PUBLIC "-//W3C//DTD SVG 20010904//EN"
 "http://www.w3.org/TR/2001/REC-SVG-20010904/DTD/svg10.dtd">
<svg version="1.0" xmlns="http://www.w3.org/2000/svg"
 width="256.000000pt" height="256.000000pt" viewBox="0 0 256.000000 256.000000"
 preserveAspectRatio="xMidYMid meet">
<metadata>
Created by potrace 1.11, written by Peter Selinger 2001-2013
</metadata>
<g transform="translate(0.000000,256.000000) scale(0.100000,-0.100000)"
fill="#000000" stroke="none">
<path d="M0 1280 l0 -1280 1280 0 1280 0 0 1280 0 1280 -1280 0 -1280 0 0
-1280z m1675 380 l390 -390 -392 -392 -393 -393 -208 208 c-193 193 -208 206
-220 187 -9 -15 -23 -20 -56 -20 -75 0 -76 1 -76 98 l0 87 -112 112 -113 113
390 390 c214 215 392 390 395 390 3 0 181 -176 395 -390z"/>
<path d="M900 1645 l-375 -375 95 -95 c83 -84 95 -93 99 -73 4 31 17 38 72 38
55 0 69 -13 69 -62 l0 -38 84 0 c82 0 85 1 106 30 16 23 19 34 10 49 -15 30
-12 62 10 99 11 18 20 34 20 36 0 3 -36 25 -80 51 -81 46 -100 69 -100 120 0
29 135 231 169 254 54 35 79 25 401 -158 320 -183 360 -207 360 -220 0 -5 -22
-19 -50 -32 -47 -22 -50 -26 -50 -62 0 -76 -74 -157 -143 -157 -16 0 -28 -7
-32 -19 -3 -11 -12 -21 -19 -24 -7 -3 -59 22 -116 54 -95 55 -104 58 -114 42
-23 -42 -65 -73 -98 -73 -27 -1 -38 -8 -61 -41 -44 -64 -78 -79 -182 -79 l-90
0 198 -197 197 -198 377 378 378 377 -375 375 c-206 206 -377 375 -380 375 -3
0 -174 -169 -380 -375z"/>
<path d="M1085 1624 c-19 -21 -35 -43 -35 -48 0 -6 24 -24 53 -40 28 -15 156
-88 284 -162 127 -74 237 -134 245 -134 8 0 42 15 76 33 l62 34 -299 171
c-165 94 -312 174 -326 178 -21 5 -31 -1 -60 -32z"/>
<path d="M981 1480 c-52 -77 -46 -85 139 -192 85 -50 211 -123 280 -163 l125
-73 38 75 c21 41 37 76 35 78 -12 11 -555 319 -567 322 -10 2 -28 -15 -50 -47z
m527 -317 c-2 -10 -10 -18 -18 -18 -8 0 -16 8 -18 18 -2 12 3 17 18 17 15 0
20 -5 18 -17z"/>
<path d="M1106 1199 c-25 -43 -14 -72 38 -103 62 -36 89 -34 122 9 15 20 25
37 23 39 -14 10 -152 86 -158 86 -4 0 -15 -14 -25 -31z"/>
<path d="M1672 1207 c-23 -10 -79 -104 -68 -114 10 -11 74 38 86 66 17 43 11
61 -18 48z"/>
<path d="M767 1094 c-13 -14 -7 -51 14 -78 31 -39 40 -32 37 27 -3 44 -6 52
-23 55 -12 2 -24 0 -28 -4z"/>
<path d="M1074 1034 l-31 -34 -92 0 c-90 0 -91 0 -91 -25 0 -25 0 -25 95 -25
108 0 137 10 166 57 17 27 19 36 9 48 -17 20 -20 19 -56 -21z"/>
<path d="M762 948 c3 -38 6 -43 28 -43 32 0 36 24 10 58 -30 38 -42 34 -38
-15z"/>
</g>
</svg>
